<svg xmlns="http://www.w3.org/2000/svg" xmlns:xlink="http://www.w3.org/1999/xlink" width="58" height="58" viewBox="0 0 58 58" fill="none"><defs><linearGradient id="linear_0" x1="50%" y1="0%" x2="51%" y2="100%" gradientUnits="objectBoundingBox"><stop offset="0" stop-color="#FC806F" stop-opacity="1" /><stop offset="1" stop-color="#FFFFFF" stop-opacity="1" /></linearGradient><filter id="filter_1" x="-6" y="-6" width="67" height="67" filterUnits="userSpaceOnUse" color-interpolation-filters="sRGB"><feFlood flood-opacity="0" result="BackgroundImageFix"/>
          <feGaussianBlur in="BackgroundImage" stdDeviation="3"/>
          <feComposite in2="SourceAlpha" operator="in" result="effect1_backgroundBlur"/>
          <feBlend mode="normal" in="SourceGraphic" in2="effect1_backgroundBlur" result="shape"/></filter><rect id="path_0" x="0" y="0" width="54.99999999999999" height="54.99999999999999" /></defs><g opacity="1" transform="translate(1.5 1.5)  rotate(0 27.499999999999996 27.499999999999996)"><g id="undefined" filter="url(#filter_1)"> fill="url(#linear_0)" opacity="1" transform="translate(0 0)  rotate(0 27.499999999999996 27.499999999999996)" stroke="#FF5A4C" stroke-width="3" stroke-opacity="1"<rect fill="url(#linear_0)" opacity="1" transform="translate(0 0)  rotate(0 27.499999999999996 27.499999999999996)" stroke="#FF5A4C" stroke-width="3" stroke-opacity="1" x="0" y="0" width="54.99999999999999" height="54.99999999999999" rx="11" /></g><mask id="bg-mask-0" fill="white"><use xlink:href="#path_0"></use></mask><g mask="url(#bg-mask-0)" ><g opacity="1" transform="translate(8.000000000000048 7.999999999999991)  rotate(0 20.000000000000004 20.000000000000004)"><g opacity="1" transform="translate(3.880615233963143 3.333333333333333)  rotate(0 16.119344619390354 16.666656335194915)"><g opacity="1" transform="translate(0 0)  rotate(0 16.119344619390354 16.666656335194915)"><path id="Vector" fill-rule="evenodd" style="fill:#FF5A4C" transform="translate(0 12.16664632161459)  rotate(0 16.119344619390354 10.583333174387619)" opacity="1" d="M34.63 13.24C33.33 19.1 28.73 23.28 22.09 23.28L13.37 23.28C6.73 23.28 2.13 19.1 0.83 13.24L0.08 9.83C-0.29 8.16 0.7 6.27 2.29 5.63L4.9 4.58L15 0.53C15.88 0.18 16.81 0 17.73 0C18.65 0 19.58 0.18 20.46 0.53L30.56 4.58L33.17 5.63C34.76 6.27 35.75 8.16 35.39 9.83L34.63 13.24Z" /><path id="Vector" fill-rule="evenodd" style="fill:#FF5A4C" transform="translate(4.452718099370192 5.000000000000002)  rotate(0 11.66666666666667 5.666658480962119)" opacity="0.4" d="M10.1 8.42L0 12.47L0 5.5C0 2.48 2.48 0 5.5 0L20.17 0C23.19 0 25.67 2.48 25.67 5.5L25.67 12.47L15.56 8.42C13.8 7.72 11.86 7.72 10.1 8.42Z" /><path id="Vector" fill-rule="evenodd" style="fill:#FF5A4C" transform="translate(11.952718099370193 0)  rotate(0 4.166666666666668 2.500000000000001)" opacity="1" d="M7.33 0C8.34 0 9.17 0.82 9.17 1.83L9.17 5.5L0 5.5L0 1.83C0 0.82 0.82 0 1.83 0L7.33 0Z" /><g opacity="1" transform="translate(6.375795022447095 7.948717948717951)  rotate(0 1.0256410256410258 1.0269282409586966)"><path id="Vector" fill-rule="evenodd" style="fill:#EE6A5F" transform="translate(0 0)  rotate(0 1.0256410256410258 1.0269282409586966)" opacity="1" d="M1.93 0.33C2.13 0.54 2.26 0.84 2.26 1.13C2.26 1.42 2.13 1.72 1.93 1.93C1.82 2.03 1.69 2.11 1.56 2.17C1.42 2.23 1.27 2.26 1.13 2.26C0.98 2.26 0.83 2.23 0.7 2.17C0.56 2.11 0.44 2.03 0.33 1.93C0.12 1.72 0 1.42 0 1.13C0 0.84 0.12 0.54 0.33 0.33C0.44 0.23 0.56 0.15 0.7 0.09C0.97 -0.03 1.29 -0.03 1.56 0.09C1.69 0.15 1.82 0.23 1.93 0.33Z" /></g></g></g></g></g></g></svg>